HIERARCHY
ROOT Hips
{
  OFFSET 57.8838 95.319 338.509
  CHANNELS 6 Xposition Yposition Zposition Zrotation Xrotation Yrotation
  JOINT LeftUpLeg
  {
    OFFSET 8.64259 1.95398 -2.38835
    CHANNELS 3 Zrotation Xrotation Yrotation
    JOINT LeftLeg
    {
      OFFSET 43.7702 0 0
      CHANNELS 3 Zrotation Xrotation Yrotation
      JOINT LeftFoot
      {
        OFFSET 40.6238 0 0
        CHANNELS 3 Zrotation Xrotation Yrotation
        JOINT LeftToeBase
        {
          OFFSET 12.7242 0 0
          CHANNELS 3 Zrotation Xrotation Yrotation
          End Site
          {
            OFFSET 0 0 0
          }
        }
      }
    }
  }
  JOINT RightUpLeg
  {
    OFFSET -8.2249 1.95398 -2.59336
    CHANNELS 3 Zrotation Xrotation Yrotation
    JOINT RightLeg
    {
      OFFSET 43.5653 0 0
      CHANNELS 3 Zrotation Xrotation Yrotation
      JOINT RightFoot
      {
        OFFSET 40.6238 0 0
        CHANNELS 3 Zrotation Xrotation Yrotation
        JOINT RightToeBase
        {
          OFFSET 12.7242 0 0
          CHANNELS 3 Zrotation Xrotation Yrotation
          End Site
          {
            OFFSET 0 0 0
          }
        }
      }
    }
  }
  JOINT Spine
  {
    OFFSET 0.165834 0.87714 6.61349
    CHANNELS 3 Zrotation Xrotation Yrotation
    JOINT Spine1
    {
      OFFSET 7.38963 1.71661e-005 0
      CHANNELS 3 Zrotation Xrotation Yrotation
      JOINT Spine2
      {
        OFFSET 11.9445 1.14441e-005 0
        CHANNELS 3 Zrotation Xrotation Yrotation
        JOINT Spine3
        {
          OFFSET 14.7254 4.19617e-005 0
          CHANNELS 3 Zrotation Xrotation Yrotation
          JOINT Spine4
          {
            OFFSET 10.9679 0 0
            CHANNELS 3 Zrotation Xrotation Yrotation
            JOINT RightShoulder
            {
              OFFSET 2.46616 -1.6653 3.69651
              CHANNELS 3 Zrotation Xrotation Yrotation
              JOINT RightArm
              {
                OFFSET 13.0012 0 0
                CHANNELS 3 Zrotation Xrotation Yrotation
                JOINT RightForeArm
                {
                  OFFSET 28.7848 1.62311e-005 0
                  CHANNELS 3 Zrotation Xrotation Yrotation
                  JOINT RightHand
                  {
                    OFFSET 26.5688 1.62095e-005 0
                    CHANNELS 3 Zrotation Xrotation Yrotation
                    End Site
                    {
                      OFFSET 0 0 0
                    }
                  }
                }
              }
            }
            JOINT LeftShoulder
            {
              OFFSET 2.38034 -1.29275 -3.7523
              CHANNELS 3 Zrotation Xrotation Yrotation
              JOINT LeftArm
              {
                OFFSET 16.3182 6.07031e-005 0
                CHANNELS 3 Zrotation Xrotation Yrotation
                JOINT LeftForeArm
                {
                  OFFSET 27.0901 0 0
                  CHANNELS 3 Zrotation Xrotation Yrotation
                  JOINT LeftHand
                  {
                    OFFSET 24.5451 1.51738e-005 0
                    CHANNELS 3 Zrotation Xrotation Yrotation
                    End Site
                    {
                      OFFSET 0 0 0
                    }
                  }
                }
              }
            }
            JOINT Neck
            {
              OFFSET 5.0226 -0.0266342 0
              CHANNELS 3 Zrotation Xrotation Yrotation
              JOINT Head
              {
                OFFSET 6.69364 2.86102e-005 0
                CHANNELS 3 Zrotation Xrotation Yrotation
                End Site
                {
                  OFFSET 0 0 0
                }
              }
            }
          }
        }
      }
    }
  }
}
MOTION
Frames:	9
Frame Time:	0.0416667
20.8824 95.0718 11.0331 97.0987 -28.8464 93.1606 177.067 -2.61652 82.99 -26.3192 31.8173 5.78048 63.6239 10.6171 13.8345 43.3523 6.03834 1.57165 177.795 16.2847 77.1571 -23.9068 -14.6998 -5.70146 65.3633 8.22521 36.5944 33.1421 -6.22189 -5.94883 -0.587255 7.55657 -89.5159 11.7643 -0.940452 1.06461 0.0931682 -0.892679 1.10496 -22.4426 -1.21692 0.73276 -2.42993 -1.21692 0.732745 98.354 -49.4382 -87.9624 36.6154 -3.5296 -2.86642 -0.508573 -16.091 -16.6348 -15.2086 -0.937488 2.0271 -79.9085 -52.9147 94.061 -31.0563 -2.0465 -27.7721 21.9776 50.9205 -40.0936 -1.99254 -0.115538 -12.0632 2.03835 9.81457 -7.43554 -23.0652 6.67378 22.9811 
22.3895 94.5699 17.1951 96.0383 -23.4814 91.5158 175.883 -3.89988 85.3274 -28.2752 33.2938 8.15183 63.9031 12.0499 12.5899 48.561 8.61093 4.1305 177.782 16.0892 78.1738 -27.6389 -16.1575 -5.93615 68.1416 5.86472 33.6765 33.4705 -6.61058 -4.77829 -0.0456889 7.59746 -89.666 11.6779 0.0659942 0.658462 0.00680497 0.0948881 0.654912 -22.527 -0.134973 0.647849 -2.5143 -0.134957 0.647849 97.4012 -48.9935 -89.4958 35.252 -6.12456 -3.82759 0.217858 -15.7735 -15.8399 -16.9473 -1.19712 3.02673 -79.5886 -55.3 94.6127 -31.1165 -8.87383 -26.7248 13.5132 57.3428 -25.3313 -0.48728 -0.20293 -10.3625 1.61555 13.0214 -8.57916 -24.7257 8.67291 28.1217 
23.4556 94.211 22.0224 93.9373 -15.2092 90.1692 170.517 3.54436 84.7855 -40.8306 27.4633 10.4644 62.4405 9.26665 7.25984 52.5116 10.9257 7.00646 176.466 16.3265 80.2372 -32.9752 -14.4842 -5.24001 70.926 2.19955 24.7954 32.7848 -5.36899 -0.809014 0.124307 7.62591 -89.8732 11.6215 0.306814 0.221733 -0.0494066 0.316275 0.208008 -22.5846 0.225996 0.303694 -2.57194 0.225974 0.303687 97.0458 -47.2225 -90.2412 34.2889 -8.28175 -5.7098 0.544231 -14.1198 -16.0061 -16.8863 -0.960691 1.40915 -79.791 -56.0085 94.3453 -34.8775 -21.135 -26.5974 3.06827 59.5342 -2.92399 5.63555 -0.298144 -7.9077 2.16952 15.2758 -9.89669 -26.4056 10.0668 31.2684 
24.6345 94.3005 25.712 92.8177 -4.30672 90.0848 169.366 14.4014 86.6204 -53.3573 16.287 9.11182 59.6506 7.20793 9.40737 49.9569 9.69071 7.0004 173.76 14.1864 82.3441 -34.1536 -9.58274 -3.29203 72.6788 0.77208 19.2197 32.9993 -5.58708 0.367404 0.141709 7.73031 -90.1994 11.4134 0.189019 -0.416319 -0.257579 0.170478 -0.424229 -22.7924 0.305386 -0.340266 -2.77981 0.30538 -0.340269 97.4096 -46.51 -89.7282 30.8024 -6.86104 -5.84507 -0.0108239 -10.0155 -20.088 -15.5308 -0.805957 0.853278 -80.3474 -55.2513 93.5241 -37.5537 -29.5322 -27.0876 8.64606 62.1048 0.028205 7.45802 0.00156184 -5.58583 3.97871 14.4973 -11.3603 -25.6137 10.0244 30.6341 
26.2248 94.8465 28.0618 92.1287 3.60847 87.578 176.43 21.214 84.9173 -53.0765 11.4185 4.36647 59.5908 6.28686 7.62317 50.17 9.67189 6.25724 170.797 12.2028 81.2809 -33.5737 -3.63377 -1.45842 74.2966 0.965392 20.5265 32.8741 -5.39914 0.773532 0.224282 7.85715 -90.182 11.1602 0.361912 -0.397748 -0.510785 0.344077 -0.4133 -23.0461 0.464707 -0.2706 -3.03344 0.464718 -0.270592 97.7776 -46.6183 -89.121 27.6013 -6.13339 -7.73994 1.01564 -7.28424 -20.6022 -17.4834 -0.938585 1.05617 -80.3184 -54.5713 93.5353 -31.8235 -32.9224 -21.2023 8.51334 68.1789 0.0439354 -0.645234 0.0254868 -8.4833 5.48665 13.0873 -12.4763 -23.731 9.50581 30.3555 
28.5151 95.5114 29.426 91.0241 13.1152 87.4284 -177.412 23.2892 83.1995 -41.8888 9.53212 -0.492113 59.5913 5.55766 6.50598 48.065 8.68083 6.26673 168.435 8.72612 81.3979 -30.138 3.03936 -0.140365 73.6574 1.81856 19.8281 34.0769 -6.86264 2.00621 0.210471 7.83199 -90.2383 11.2103 0.308107 -0.504613 -0.460713 0.285606 -0.517688 -22.9956 0.44551 -0.388686 -2.98299 0.44553 -0.388691 97.898 -46.2149 -88.9633 26.5391 -5.70076 -7.80399 1.38516 -6.55126 -20.4287 -17.6515 -0.869195 0.526365 -80.171 -54.4499 93.7425 -25.8683 -32.2434 -13.1249 5.01893 68.2157 0.04215 -2.30996 0.0211916 -9.32783 6.00744 11.3786 -11.7733 -21.8765 8.51752 28.5909 
30.9412 96.1237 29.453 89.5462 21.2721 86.9699 -177.223 22.3106 82.1422 -23.3485 1.85248 -2.87735 57.0367 1.3257 6.202 40.9766 5.43599 7.79661 167.017 4.81926 81.8339 -24.9796 8.8446 0.404983 71.6384 2.72857 19.6732 34.9775 -8.07853 1.41049 0.27051 7.74283 -90.2954 11.389 0.400406 -0.628563 -0.281997 0.372385 -0.645588 -22.8169 0.570796 -0.47917 -2.80423 0.570811 -0.47917 97.9582 -46.5119 -88.8381 26.1562 -5.54653 -7.87322 1.49813 -7.01658 -19.1152 -16.0186 -0.834261 0.871434 -80.0847 -54.8158 93.8817 -25.2592 -32.0712 -7.93218 3.82767 62.7835 0.0280836 0.516049 -0.118268 -8.69755 8.2061 9.33345 -9.5766 -20.5199 7.12742 25.1787 
33.7694 96.2881 28.4238 87.5511 27.1661 88.0756 178.172 21.3256 83.2447 -8.31907 -3.05946 -2.51048 56.2716 0.183484 8.03885 34.487 2.28444 9.13221 166.629 1.75698 83.121 -20.6826 13.7884 0.486034 68.7326 4.18126 19.2053 36.3362 -9.5712 3.3397 0.421659 7.66568 -90.305 11.5444 0.696178 -0.679286 -0.12659 0.665584 -0.70927 -22.6625 0.86811 -0.438649 -2.6499 0.868129 -0.438647 97.9317 -47.4663 -88.7953 26.1881 -7.10222 -9.01282 0.979362 -8.9136 -18.0958 -14.466 -0.780849 1.10814 -80.2385 -55.3227 93.6823 -27.7456 -33.1369 -5.60572 5.03729 64.6467 0.0225381 -3.08272 0.00335951 -8.97331 11.0038 7.19557 -10.4007 -19.1803 5.6434 25.6313 
37.8455 95.6018 25.6728 85.9082 32.9396 90.1355 177.194 21.8702 83.339 -8.51101 1.59374 -2.01333 55.1804 -2.63079 8.83032 35.5252 2.82434 7.87983 166.211 -1.14037 83.9956 -20.4409 14.3634 0.92453 66.8389 5.5638 18.8469 37.6649 -11.7239 0.300121 0.416963 7.60066 -90.3212 11.675 0.67876 -0.710907 0.00407432 0.646836 -0.740098 -22.5318 0.86104 -0.474042 -2.51911 0.861044 -0.474047 98.1217 -48.3666 -88.4146 26.9911 -9.21605 -9.31681 -0.51244 -11.0018 -19.8326 -14.0736 -0.644132 0.139975 -80.3598 -55.7584 93.5282 -29.803 -32.5525 -4.80191 5.1216 70.5968 0.0852177 -11.2085 0.451762 -11.013 12.1723 5.68916 -10.7179 -17.5998 4.80212 24.8506 
